<svg width="48" height="48" viewBox="0 0 48 48" fill="none" xmlns="http://www.w3.org/2000/svg">
<rect width="48" height="48" rx="8" fill="#006D77" fill-opacity="0.1"/>
<path d="M16 33C15.45 33 14.9792 32.8042 14.5875 32.4125C14.1958 32.0208 14 31.55 14 31V24H16V31H25V33H16ZM20 29C19.45 29 18.9792 28.8042 18.5875 28.4125C18.1958 28.0208 18 27.55 18 27V20H20V27H29V29H20ZM24 25C23.45 25 22.9792 24.8042 22.5875 24.4125C22.1958 24.0208 22 23.55 22 23V17C22 16.45 22.1958 15.9792 22.5875 15.5875C22.9792 15.1958 23.45 15 24 15H32C32.55 15 33.0208 15.1958 33.4125 15.5875C33.8042 15.9792 34 16.45 34 17V23C34 23.55 33.8042 24.0208 33.4125 24.4125C33.0208 24.8042 32.55 25 32 25H24ZM24 23H32V19H24V23Z" fill="#006D77"/>
</svg>
